# xmcd CD database file
#
# Track frame offsets:
#        150
#        18011
#        37722
#        52817
#        67410
#        80835
#        96007
#        116462
#        137807
#        152185
#        167452
#        186757
#        205817
#
# Disc length: 3019 seconds
#
# Revision: 0
# Processed by: cddbd v1.5.2PL0 Copyright (c) Steve Scherf et al.
# Submitted via: CUERipper 2.1.5
#
DISCID=a30bc90d
DTITLE=安室奈美恵 - Uncontrolled
DYEAR=2012
DGENRE=
TTITLE0=In The Spotlight (TOKYO)
TTITLE1=NAKED
TTITLE2=GO ROUND ('N ROUND 'N ROUND)
TTITLE3=Sit! Stay! Wait! Down!
TTITLE4=Hot Girls
TTITLE5=Break It
TTITLE6=Get Myself Back
TTITLE7=Love Story
TTITLE8=Let's Go
TTITLE9=SINGING "YEAH-OH"
TTITLE10=Fight Together
TTITLE11=ONLY YOU
TTITLE12=Tempest
EXTD=
EXTT0=
EXTT1=
EXTT2=
EXTT3=
EXTT4=
EXTT5=
EXTT6=
EXTT7=
EXTT8=
EXTT9=
EXTT10=
EXTT11=
EXTT12=
PLAYORDER=
